# xmcd CD database file
#
# Track frame offsets:
#	150
#	36373
#	60175
#	86684
#	107652
#	129986
#	149917
#	168325
#	188765
#	206770
#	227376
#	245124
#	267190
#	288201
#	306944
#	328312
#
# Disc length: 4613 seconds
#
# Revision: 0
# Processed by: cddbd v1.5.1PL0 Copyright (c) Steve Scherf et al.
# Submitted via: CDex 1.51
#
DISCID=eb120310
DTITLE=Various Artist - Salsa Hits 2003 Part 2
DYEAR=2003
DGENRE=Salsa
TTITLE0=Edwin Bonilla
TTITLE1=Tito Rojas
TTITLE2=Grupo Galé
TTITLE3=Jerry Rivera
TTITLE4=Fruko
TTITLE5=Jerry Galante
TTITLE6=Adolescentes
TTITLE7=Orquesta Tabaco Y Ron
TTITLE8=Boby Valentín
TTITLE9=Grupo Niche
TTITLE10=Tito Gomez
TTITLE11=Rey and Frankie
TTITLE12=Jimmy D'León
TTITLE13=Pete El Conde
TTITLE14=The Music Club
TTITLE15=Oscar D'León
EXTD=YEAR: 2003
EXTT0=
EXTT1=
EXTT2=
EXTT3=
EXTT4=
EXTT5=
EXTT6=
EXTT7=
EXTT8=
EXTT9=
EXTT10=
EXTT11=
EXTT12=
EXTT13=
EXTT14=
EXTT15=
PLAYORDER=
